<?xml version="1.0" encoding="UTF-8" standalone="no"?>
<!-- Created with Inkscape (http://www.inkscape.org/) -->

<svg
   width="210mm"
   height="297mm"
   viewBox="0 0 210 297"
   version="1.1"
   id="svg1"
   sodipodi:docname="uvm.svg"
   inkscape:version="1.4.4 (dcaf3e7, 2026-05-05)"
   xmlns:inkscape="http://www.inkscape.org/namespaces/inkscape"
   xmlns:sodipodi="http://sodipodi.sourceforge.net/DTD/sodipodi-0.dtd"
   xmlns="http://www.w3.org/2000/svg"
   xmlns:svg="http://www.w3.org/2000/svg">
  <sodipodi:namedview
     id="namedview1"
     pagecolor="#ffffff"
     bordercolor="#000000"
     borderopacity="0.25"
     inkscape:showpageshadow="2"
     inkscape:pageopacity="0.0"
     inkscape:pagecheckerboard="0"
     inkscape:deskcolor="#d1d1d1"
     inkscape:document-units="mm"
     inkscape:zoom="1.4077774"
     inkscape:cx="348.06639"
     inkscape:cy="200.67093"
     inkscape:window-width="1920"
     inkscape:window-height="1009"
     inkscape:window-x="-8"
     inkscape:window-y="-8"
     inkscape:window-maximized="1"
     inkscape:current-layer="layer1" />
  <defs
     id="defs1" />
  <g
     inkscape:label="Capa 1"
     inkscape:groupmode="layer"
     id="layer1">
    <rect
       style="fill:#ff0000;stroke-width:0.636083"
       id="rect1"
       width="132.29167"
       height="44.097221"
       x="55.20446"
       y="44.899628" />
    <g
       id="XMLID_173_"
       transform="matrix(0.88194443,0,0,0.88194443,75.415383,53.021019)"
       style="fill:#ffffff">
	<path
   id="XMLID_174_"
   class="st0"
   d="M 97.5,3.13 V 26.86 H 91.56 V 12.17 L 81.94,23.14 72.32,12.17 V 26.86 H 66.44 V 3.13 h 0.3 v 0 c 0.01,0 0.02,0 0.03,0 2.68,0 4.99,0.82 6.05,2 v 0 l 9.12,10.14 9.2,-10.17 c 1.07,-1.16 3.36,-1.97 6.01,-1.97 0,0 0.02,0 0.03,0 v 0 z m -34.23,0 v 0 c 0,0 -0.02,0 -0.04,0 -2.97,0 -5.53,0.81 -6.72,1.98 L 47.2,19.21 37.88,5.1 C 36.69,3.94 34.13,3.13 31.16,3.13 c -0.01,0 -0.02,0 -0.02,0 h -0.01 -1.88 l 15.86,23.73 h 4.17 L 65.2,3.13 Z M 22.14,5.08 v 12.56 c 0,1.18 0,2.8 -1.69,3.85 -1.24,0.74 -3.21,0.92 -5.46,0.92 -1.8,0 -3.77,-0.09 -5.01,-0.88 C 8.52,20.61 8.46,19.3 8.46,18.07 V 5.06 C 7.41,3.93 5.14,3.14 2.5,3.13 v 15.43 c 0,1.92 0.4,4.24 2.59,5.99 2.65,2.1 6.92,2.32 10.02,2.32 3.43,0 7.43,-0.35 9.96,-2.05 2.65,-1.75 2.99,-3.98 2.99,-6.26 V 3.13 c -2.63,0.02 -4.88,0.82 -5.92,1.95"
   style="fill:#ffffff" />

</g>
  </g>
</svg>
